<svg width="32" height="32" viewBox="0 0 32 32" fill="none" xmlns="http://www.w3.org/2000/svg">
<path d="M10.6666 22.3332H7.23996C3.65329 22.3332 1.66663 20.3598 1.66663 16.7598V7.23984C1.66663 3.65317 3.63996 1.6665 7.23996 1.6665H13.3333C16.92 1.6665 18.9066 3.63984 18.9066 7.23984C18.9066 7.7865 18.4533 8.23984 17.9066 8.23984C17.36 8.23984 16.9066 7.7865 16.9066 7.23984C16.9066 4.73317 15.84 3.6665 13.3333 3.6665H7.23996C4.73329 3.6665 3.66663 4.73317 3.66663 7.23984V16.7598C3.66663 19.2665 4.73329 20.3332 7.23996 20.3332H10.6666C11.2133 20.3332 11.6666 20.7865 11.6666 21.3332C11.6666 21.8798 11.2133 22.3332 10.6666 22.3332Z" fill="#6A42C2"/>
<path d="M24.76 30.3332H18.6667C15.0801 30.3332 13.0934 28.3598 13.0934 24.7598V15.2398C13.0934 11.6532 15.0667 9.6665 18.6667 9.6665H24.76C28.3467 9.6665 30.3334 11.6398 30.3334 15.2398V24.7598C30.3334 28.3598 28.36 30.3332 24.76 30.3332ZM18.6667 11.6665C16.1601 11.6665 15.0934 12.7332 15.0934 15.2398V24.7598C15.0934 27.2665 16.1601 28.3332 18.6667 28.3332H24.76C27.2667 28.3332 28.3334 27.2665 28.3334 24.7598V15.2398C28.3334 12.7332 27.2667 11.6665 24.76 11.6665H18.6667Z" fill="#6A42C2"/>
<path d="M24.1733 21H19.84C19.2933 21 18.84 20.5467 18.84 20C18.84 19.4533 19.2933 19 19.84 19H24.1733C24.72 19 25.1733 19.4533 25.1733 20C25.1733 20.5467 24.72 21 24.1733 21Z" fill="#6A42C2"/>
<path d="M22 23.1732C21.4533 23.1732 21 22.7198 21 22.1732V17.8398C21 17.2932 21.4533 16.8398 22 16.8398C22.5467 16.8398 23 17.2932 23 17.8398V22.1732C23 22.7198 22.5467 23.1732 22 23.1732Z" fill="#6A42C2"/>
</svg>
