<svg width="24" height="24" viewBox="0 0 24 24" fill="none" xmlns="http://www.w3.org/2000/svg">
<path fill-rule="evenodd" clip-rule="evenodd" d="M12 14.25C12.4142 14.25 12.75 14.5858 12.75 15V18C12.75 18.4142 12.4142 18.75 12 18.75C11.5858 18.75 11.25 18.4142 11.25 18V15C11.25 14.5858 11.5858 14.25 12 14.25Z" fill="#8895A7"/>
<path fill-rule="evenodd" clip-rule="evenodd" d="M14.399 2.24492C14.3993 2.24515 14.3996 2.24538 14.3999 2.24561L21.3304 7.78602C21.8441 8.1996 22.2289 8.8053 22.4645 9.42285C22.7002 10.0406 22.8167 10.7492 22.7103 11.401L22.7098 11.4038L21.3798 19.3638L21.3794 19.366C21.0783 21.1353 19.397 22.5602 17.6001 22.5602H6.40006C4.59386 22.5602 2.9215 21.1458 2.62054 19.3652L1.29109 11.4084C1.29095 11.4075 1.2908 11.4067 1.29066 11.4059C1.17784 10.752 1.29197 10.0417 1.52807 9.42285C1.76433 8.80359 2.15264 8.19746 2.67214 7.78405C2.67255 7.78373 2.67296 7.7834 2.67337 7.78307L9.60086 2.23508C10.9362 1.16457 13.0562 1.16633 14.399 2.24492ZM13.4602 3.41478C12.6631 2.77415 11.3236 2.77633 10.5393 3.4053L3.60674 8.95731C3.34686 9.16388 3.0956 9.52228 2.92954 9.95753C2.76345 10.3929 2.71256 10.8266 2.76902 11.152L2.76982 11.1566L4.09957 19.1152C4.09954 19.115 4.0996 19.1154 4.09957 19.1152C4.27889 20.1743 5.32645 21.0602 6.40006 21.0602H17.6001C18.6628 21.0602 19.7211 20.1657 19.9005 19.1155C19.9006 19.1151 19.9006 19.1147 19.9007 19.1143L21.2299 11.1593C21.2299 11.1589 21.23 11.1584 21.2301 11.158C21.2833 10.83 21.2297 10.3942 21.0631 9.95753C20.8964 9.52059 20.6466 9.16161 20.3906 8.95508C20.3903 8.95484 20.39 8.9546 20.3897 8.95436L13.4617 3.41601L13.4602 3.41478Z" fill="#8895A7"/>
</svg>
