<svg width="21" height="18" viewBox="0 0 21 18" fill="none" xmlns="http://www.w3.org/2000/svg">
<path d="M16 0H6C3 0 1 1.5 1 5V8.56C1 8.93 1.38 9.16 1.71 9.01C2.69 8.56 3.82 8.39 5.01 8.6C7.64 9.07 9.57 11.51 9.5 14.18C9.49 14.6 9.43 15.01 9.32 15.41C9.24 15.72 9.49 16.01 9.81 16.01H16C19 16.01 21 14.51 21 11.01V5C21 1.5 19 0 16 0ZM11 10.5C9.62 10.5 8.5 9.38 8.5 8C8.5 6.62 9.62 5.5 11 5.5C12.38 5.5 13.5 6.62 13.5 8C13.5 9.38 12.38 10.5 11 10.5ZM18.25 10C18.25 10.41 17.91 10.75 17.5 10.75C17.09 10.75 16.75 10.41 16.75 10V6C16.75 5.59 17.09 5.25 17.5 5.25C17.91 5.25 18.25 5.59 18.25 6V10Z" fill="#6A42C2"/>
<path d="M4 10C1.79 10 0 11.79 0 14C0 14.75 0.21 15.46 0.58 16.06C1.27 17.22 2.54 18 4 18C5.46 18 6.73 17.22 7.42 16.06C7.79 15.46 8 14.75 8 14C8 11.79 6.21 10 4 10ZM5.97 13.67L3.84 15.64C3.7 15.77 3.51 15.84 3.33 15.84C3.14 15.84 2.95 15.77 2.8 15.62L1.81 14.63C1.52 14.34 1.52 13.86 1.81 13.57C2.1 13.28 2.58 13.28 2.87 13.57L3.35 14.05L4.95 12.57C5.25 12.29 5.73 12.31 6.01 12.61C6.29 12.91 6.27 13.39 5.97 13.67Z" fill="#6A42C2"/>
</svg>
