<svg width="21" height="22" viewBox="0 0 21 22" fill="none" xmlns="http://www.w3.org/2000/svg">
<path fill-rule="evenodd" clip-rule="evenodd" d="M7.40497 1.5C5.36028 1.5 3.71497 3.15311 3.71497 5.19C3.71497 7.17302 5.26404 8.78198 7.21985 8.86885C7.33846 8.8606 7.46376 8.8602 7.58197 8.86877C9.53585 8.78098 11.0859 7.17308 11.095 5.18847C11.0941 3.15339 9.44024 1.5 7.40497 1.5ZM2.21497 5.19C2.21497 2.32689 4.52965 0 7.40497 0C10.2692 0 12.595 2.32579 12.595 5.19L12.595 5.19313C12.5833 7.99352 10.3759 10.2759 7.59016 10.3696C7.55685 10.3707 7.5235 10.3696 7.49034 10.3663C7.44212 10.3615 7.37006 10.3608 7.30287 10.3669C7.27192 10.3697 7.24083 10.3706 7.20977 10.3696C4.42456 10.276 2.21497 7.99337 2.21497 5.19Z" fill="#8895A7"/>
<path fill-rule="evenodd" clip-rule="evenodd" d="M14.065 2.75C14.065 2.33579 14.4008 2 14.815 2C17.1706 2 19.065 3.90718 19.065 6.25C19.065 8.54545 17.2439 10.4145 14.9731 10.4995C14.9326 10.501 14.8921 10.4992 14.852 10.4942C14.837 10.4923 14.8064 10.4911 14.7678 10.4954C14.3561 10.5412 13.9853 10.2445 13.9396 9.83282C13.8938 9.42114 14.1905 9.05033 14.6022 9.00459C14.72 8.9915 14.8433 8.98847 14.9651 8.99831C16.4118 8.919 17.565 7.7183 17.565 6.25C17.565 4.73282 16.3394 3.5 14.815 3.5C14.4008 3.5 14.065 3.16421 14.065 2.75Z" fill="#8895A7"/>
<path fill-rule="evenodd" clip-rule="evenodd" d="M7.5775 11.1875C9.5057 11.1875 11.472 11.6714 12.9916 12.6863C14.3574 13.5954 15.14 14.8698 15.14 16.2413C15.14 17.6126 14.3576 18.8893 12.9922 19.8032L12.9921 19.8033C11.4679 20.8232 9.49908 21.31 7.57 21.31C5.64129 21.31 3.67291 20.8234 2.14882 19.8039C0.782709 18.8948 0 17.6203 0 16.2487C0 14.8774 0.782442 13.6007 2.14779 12.6868L2.15054 12.6849L2.15054 12.6849C3.67898 11.6715 5.64906 11.1875 7.5775 11.1875ZM2.98083 13.9342C1.92719 14.64 1.5 15.4929 1.5 16.2487C1.5 17.0044 1.92701 17.8547 2.98043 18.5556L2.98207 18.5567C4.20786 19.3768 5.86908 19.81 7.57 19.81C9.27085 19.81 10.932 19.3769 12.1578 18.5568C13.2124 17.8507 13.64 16.9974 13.64 16.2413C13.64 15.4855 13.213 14.6353 12.1596 13.9344L12.1585 13.9337C10.938 13.1186 9.2793 12.6875 7.5775 12.6875C5.87657 12.6875 4.21227 13.1182 2.98083 13.9342Z" fill="#8895A7"/>
<path fill-rule="evenodd" clip-rule="evenodd" d="M16.0434 12.5853C16.1344 12.1812 16.5358 11.9275 16.9399 12.0185C17.7293 12.1964 18.5041 12.5138 19.1576 13.0121C20.0987 13.719 20.625 14.7042 20.625 15.7452C20.625 16.7859 20.099 17.7708 19.1584 18.4776C18.497 18.9846 17.7103 19.3152 16.898 19.4844C16.4925 19.5689 16.0953 19.3086 16.0108 18.9031C15.9263 18.4976 16.1866 18.1004 16.5921 18.0159C17.2183 17.8855 17.7904 17.6369 18.2483 17.2853L18.255 17.2801L18.255 17.2802C18.8723 16.8172 19.125 16.2532 19.125 15.7452C19.125 15.2371 18.8723 14.6731 18.255 14.2102L18.2498 14.2063L18.2498 14.2062C17.8039 13.8657 17.2397 13.6237 16.6101 13.4818C16.2061 13.3908 15.9523 12.9894 16.0434 12.5853Z" fill="#8895A7"/>
</svg>
