<svg width="20" height="22" viewBox="0 0 20 22" fill="none" xmlns="http://www.w3.org/2000/svg">
<path fill-rule="evenodd" clip-rule="evenodd" d="M2.71578 3.78415C4.72033 3.58171 6.72512 3.48047 8.73005 3.48047C12.0954 3.48047 15.4701 3.65176 18.824 3.98412C19.2362 4.02497 19.5372 4.39224 19.4964 4.80443C19.4555 5.21663 19.0883 5.51766 18.6761 5.47681C15.37 5.14918 12.0447 4.98047 8.73005 4.98047C6.77535 4.98047 4.82051 5.07919 2.86543 5.27667L2.86323 5.27689L0.823233 5.47689C0.410996 5.51731 0.0440483 5.21588 0.00363295 4.80365C-0.0367824 4.39141 0.264639 4.02446 0.676876 3.98405L2.71578 3.78415Z" fill="#D62F4B"/>
<path fill-rule="evenodd" clip-rule="evenodd" d="M7.2097 2.53456L6.98976 3.84421C6.92116 4.25271 6.5344 4.52824 6.1259 4.45964C5.71741 4.39104 5.44187 4.00428 5.51048 3.59578L5.73048 2.28579C5.73432 2.26297 5.73828 2.23908 5.74228 2.21487C5.81114 1.79899 5.91216 1.18887 6.31885 0.727691C6.79291 0.190117 7.51621 0 8.44012 0H11.0601C11.9953 0 12.7178 0.205399 13.1891 0.748446C13.5963 1.21776 13.6948 1.83006 13.7606 2.23891C13.7638 2.2588 13.7669 2.27822 13.77 2.29711L13.9896 3.59486C14.0587 4.00326 13.7837 4.39037 13.3753 4.45949C12.9669 4.5286 12.5797 4.25355 12.5106 3.84514L12.2899 2.54069C12.2062 2.02767 12.1533 1.84352 12.0562 1.73155C12.0024 1.6696 11.815 1.5 11.0601 1.5H8.44012C7.67402 1.5 7.49232 1.66488 7.44389 1.71981C7.35177 1.82427 7.29978 1.99976 7.2097 2.53456Z" fill="#D62F4B"/>
<path fill-rule="evenodd" clip-rule="evenodd" d="M16.6485 7.14123C17.0618 7.16791 17.3753 7.52463 17.3486 7.93799L16.6984 18.0121L16.697 18.0311C16.6707 18.4073 16.6417 18.8211 16.5642 19.206C16.4838 19.6052 16.3421 20.0265 16.055 20.4003C15.4538 21.183 14.4307 21.4997 12.9602 21.4997H6.54017C5.06961 21.4997 4.04655 21.183 3.44537 20.4003C3.15827 20.0265 3.01658 19.6052 2.93619 19.206C2.85866 18.8211 2.82968 18.4073 2.80334 18.0311L2.80172 18.008L2.15173 7.93799C2.12505 7.52463 2.43851 7.16791 2.85186 7.14123C3.26522 7.11455 3.62193 7.42801 3.64862 7.84136L4.29834 17.9073C4.29839 17.9079 4.29844 17.9086 4.29848 17.9093C4.32671 18.3121 4.35059 18.6315 4.40666 18.9099C4.46127 19.181 4.53708 19.3591 4.63497 19.4866C4.8038 19.7064 5.22074 19.9997 6.54017 19.9997H12.9602C14.2796 19.9997 14.6965 19.7064 14.8654 19.4866C14.9633 19.3591 15.0391 19.181 15.0937 18.9099C15.1498 18.6315 15.1736 18.3121 15.2019 17.9093C15.2019 17.9086 15.202 17.9079 15.202 17.9073L15.8517 7.84136C15.8784 7.42801 16.2351 7.11455 16.6485 7.14123Z" fill="#D62F4B"/>
<path fill-rule="evenodd" clip-rule="evenodd" d="M7.33008 15.25C7.33008 14.8358 7.66586 14.5 8.08008 14.5H11.4101C11.8243 14.5 12.1601 14.8358 12.1601 15.25C12.1601 15.6642 11.8243 16 11.4101 16H8.08008C7.66586 16 7.33008 15.6642 7.33008 15.25Z" fill="#D62F4B"/>
<path fill-rule="evenodd" clip-rule="evenodd" d="M6.5 11.25C6.5 10.8358 6.83579 10.5 7.25 10.5H12.25C12.6642 10.5 13 10.8358 13 11.25C13 11.6642 12.6642 12 12.25 12H7.25C6.83579 12 6.5 11.6642 6.5 11.25Z" fill="#D62F4B"/>
</svg>
