<svg width="19" height="20" viewBox="0 0 19 20" fill="none" xmlns="http://www.w3.org/2000/svg">
<path d="M19 11.6396V12.6396C19 12.9096 18.79 13.1296 18.51 13.1396H17.05C16.52 13.1396 16.04 12.7496 16 12.2296C15.97 11.9196 16.09 11.6296 16.29 11.4296C16.47 11.2396 16.72 11.1396 16.99 11.1396H18.5C18.79 11.1496 19 11.3696 19 11.6396Z" fill="#6A42C2"/>
<path d="M15.54 10.6896C15.04 11.1796 14.8 11.9096 15 12.6696C15.26 13.5996 16.17 14.1896 17.13 14.1896H18C18.55 14.1896 19 14.6396 19 15.1896V15.3796C19 17.4496 17.31 19.1396 15.24 19.1396H3.76C1.69 19.1396 0 17.4496 0 15.3796V8.64965C0 7.41965 0.59 6.32965 1.5 5.64965C2.13 5.16965 2.91 4.88965 3.76 4.88965H15.24C17.31 4.88965 19 6.57965 19 8.64965V9.08965C19 9.63965 18.55 10.0896 18 10.0896H16.98C16.42 10.0896 15.91 10.3096 15.54 10.6896Z" fill="#6A42C2"/>
<path d="M13.75 2.82C14.02 3.09 13.79 3.51 13.41 3.51L5.72999 3.5C5.28999 3.5 5.05999 2.96 5.37999 2.65L6.99999 1.02C8.36999 -0.34 10.59 -0.34 11.96 1.02L13.71 2.79C13.72 2.8 13.74 2.81 13.75 2.82Z" fill="#6A42C2"/>
</svg>
